<svg height="96" width="96" xmlns="http://www.w3.org/2000/svg"><path d="M88.62 48.456c0 29.633-10.364 40.001-40.001 40.001-29.636 0-40.001-10.368-40.001-40.001 0-29.635 10.365-40 40.001-40 29.637 0 40.001 10.365 40.001 40z" fill="#287d93"/><g fill="#fff"><path d="M39.849 21.919c-3.226 0-5.841 2.615-5.841 5.841 0 3.2259 2.615 5.841 5.841 5.841h17.523c3.226 0 5.841-2.615 5.841-5.841 0-3.2259-2.615-5.841-5.841-5.841H39.849zM39.849 45.283c-.403 0-.7972.0412-1.1772.119-2.6617.5447-4.6638 2.8993-4.6638 5.722v17.523c0 3.2259 2.615 5.841 5.841 5.841h17.523c3.226 0 5.841-2.615 5.841-5.841 0-3.2259-2.615-5.841-5.841-5.841H45.69v-5.841h5.841c3.226 0 5.841-2.615 5.841-5.841 0-3.2259-2.615-5.841-5.841-5.841H39.8533z"/></g></svg>