<?xml version="1.0" encoding="UTF-8" standalone="no"?>
<svg
   xmlns:dc="http://purl.org/dc/elements/1.1/"
   xmlns:cc="http://creativecommons.org/ns#"
   xmlns:rdf="http://www.w3.org/1999/02/22-rdf-syntax-ns#"
   xmlns:svg="http://www.w3.org/2000/svg"
   xmlns="http://www.w3.org/2000/svg"
   xmlns:sodipodi="http://sodipodi.sourceforge.net/DTD/sodipodi-0.dtd"
   xmlns:inkscape="http://www.inkscape.org/namespaces/inkscape"
   width="50.799999mm"
   height="50.799999mm"
   viewBox="0 0 50.799999 50.799999"
   version="1.1"
   id="svg38"
   inkscape:version="1.0.2 (e86c870879, 2021-01-15)"
   sodipodi:docname="elements-logo.svg">
  <defs
     id="defs32" />
  <sodipodi:namedview
     id="base"
     pagecolor="#ffffff"
     bordercolor="#666666"
     borderopacity="1.0"
     inkscape:pageopacity="0.0"
     inkscape:pageshadow="2"
     inkscape:zoom="1.979899"
     inkscape:cx="214.12057"
     inkscape:cy="134.48573"
     inkscape:document-units="mm"
     inkscape:current-layer="layer1"
     inkscape:document-rotation="0"
     showgrid="false"
     inkscape:window-width="1658"
     inkscape:window-height="970"
     inkscape:window-x="0"
     inkscape:window-y="0"
     inkscape:window-maximized="0" />
  <metadata
     id="metadata35">
    <rdf:RDF>
      <cc:Work
         rdf:about="">
        <dc:format>image/svg+xml</dc:format>
        <dc:type
           rdf:resource="http://purl.org/dc/dcmitype/StillImage" />
        <dc:title></dc:title>
      </cc:Work>
    </rdf:RDF>
  </metadata>
  <g
     inkscape:label="Слой 1"
     inkscape:groupmode="layer"
     id="layer1"
     transform="translate(14.816666,8.9958334)">
    <path
       id="path2"
       style="fill:#000000;stroke-width:0.264583"
       d="M 4.2333333,-2.6458333 C 1.8952273,-2.6458333 0,-0.75051401 0,1.5874999 0,3.92549 1.8952273,5.8208332 4.2333333,5.8208332 c 4.360346,0 8.9368477,0 12.6999997,0 2.33812,0 4.233333,-1.8953162 4.233333,-4.2333333 0,-2.33799293 -1.895213,-4.2333332 -4.233333,-4.2333332 -4.233333,0 -8.4666664,0 -12.6999997,0 z"
       sodipodi:nodetypes="csccscc" />
    <path
       id="path6"
       style="fill:#000000;stroke-width:0.999999"
       d="m 16,54 c -1.104,0 -2.18361,0.112969 -3.224609,0.326172 C 5.4843906,55.818072 0,62.267997 0,70 v 48 c 0,8.8365 7.1630639,16 16,16 h 48 c 8.836989,0 16,-7.1634 16,-16 0,-8.83651 -7.163011,-16 -16,-16 H 37.703125 32 V 86 H 48 C 56.837,86 64,78.8366 64,70 64,61.163499 56.837,54 48,54 H 16.011719 Z"
       transform="scale(0.26458333)" />
  </g>
</svg>
