<?xml version="1.0" encoding="UTF-8" standalone="no"?>
<svg
   height="96"
   version="1.1"
   viewBox="0 0 96 96"
   width="96"
   x="0"
   y="0"
   id="svg6"
   sodipodi:docname="logo.svg"
   inkscape:version="1.1 (c4e8f9ed74, 2021-05-24)"
   xmlns:inkscape="http://www.inkscape.org/namespaces/inkscape"
   xmlns:sodipodi="http://sodipodi.sourceforge.net/DTD/sodipodi-0.dtd"
   xmlns="http://www.w3.org/2000/svg"
   xmlns:svg="http://www.w3.org/2000/svg"
   xmlns:rdf="http://www.w3.org/1999/02/22-rdf-syntax-ns#"
   xmlns:cc="http://creativecommons.org/ns#"
   xmlns:dc="http://purl.org/dc/elements/1.1/">
  <metadata
     id="metadata12">
    <rdf:RDF>
      <cc:Work
         rdf:about="">
        <dc:format>image/svg+xml</dc:format>
        <dc:type
           rdf:resource="http://purl.org/dc/dcmitype/StillImage" />
      </cc:Work>
    </rdf:RDF>
  </metadata>
  <defs
     id="defs10" />
  <sodipodi:namedview
     pagecolor="#ffffff"
     bordercolor="#666666"
     borderopacity="1"
     objecttolerance="10"
     gridtolerance="10"
     guidetolerance="10"
     inkscape:pageopacity="0"
     inkscape:pageshadow="2"
     inkscape:window-width="1920"
     inkscape:window-height="1011"
     id="namedview8"
     showgrid="false"
     inkscape:zoom="4.9166666"
     inkscape:cx="56.033899"
     inkscape:cy="46.677967"
     inkscape:window-x="0"
     inkscape:window-y="0"
     inkscape:window-maximized="1"
     inkscape:current-layer="layer1"
     inkscape:pagecheckerboard="0" />
  <g
     inkscape:groupmode="layer"
     id="layer1"
     inkscape:label="bg"
     style="display:inline">
    <path
       d="m 88.62,48.456 c 0,29.633 -10.364,40.001 -40.001,40.001 -29.636,0 -40.001,-10.368 -40.001,-40.001 0,-29.635 10.365,-40 40.001,-40 29.637,0 40.001,10.365 40.001,40 z"
       id="path2"
       inkscape:connector-curvature="0"
       style="fill:#287d93;fill-opacity:1" />
  </g>
  <g
     inkscape:groupmode="layer"
     id="layer3"
     inkscape:label="fg"
     style="display:inline;opacity:1">
    <path
       id="path2-36"
       style="fill:#ffffff;fill-opacity:1;stroke-width:0.365062"
       d="m 39.849001,21.919 c -3.226035,0 -5.841001,2.615093 -5.841001,5.841 0,3.225874 2.614966,5.841 5.841001,5.841 6.016246,0 12.33074,0 17.523001,0 3.226048,0 5.840996,-2.615089 5.840996,-5.841 0,-3.225878 -2.614948,-5.841 -5.840996,-5.841 -5.841003,0 -11.682004,0 -17.523001,0 z"
       sodipodi:nodetypes="csccscc" />
    <path
       id="path6"
       style="fill:#ffffff;fill-opacity:1;stroke-width:0.365062"
       d="m 39.849001,45.283 c -0.40303,0 -0.797155,0.04124 -1.177184,0.119073 C 36.010146,45.94671 34.008,48.301336 34.008,51.124 v 17.523003 c 0,3.225871 2.614966,5.840997 5.841001,5.840997 h 17.523001 c 3.226048,0 5.840996,-2.615086 5.840996,-5.840997 0,-3.225879 -2.614948,-5.841005 -5.840996,-5.841005 h -9.600004 -2.082 v -5.840997 h 5.841001 c 3.226053,0 5.841003,-2.615089 5.841003,-5.841001 0,-3.225875 -2.61495,-5.841 -5.841003,-5.841 H 39.853278 Z" />
  </g>
</svg>
